<?xml version="1.0" encoding="UTF-8" standalone="no"?>
<!-- Created with Inkscape (http://www.inkscape.org/) -->

<svg
   width="210mm"
   height="297mm"
   viewBox="0 0 210 297"
   version="1.1"
   id="svg21748"
   inkscape:version="1.2.2 (1:1.2.2+202212051552+b0a8486541)"
   sodipodi:docname="theta1.svg"
   xmlns:inkscape="http://www.inkscape.org/namespaces/inkscape"
   xmlns:sodipodi="http://sodipodi.sourceforge.net/DTD/sodipodi-0.dtd"
   xmlns="http://www.w3.org/2000/svg"
   xmlns:svg="http://www.w3.org/2000/svg"
   xmlns:ns4="http://www.iki.fi/pav/software/textext/">
  <sodipodi:namedview
     id="namedview21750"
     pagecolor="#ffffff"
     bordercolor="#666666"
     borderopacity="1.0"
     inkscape:showpageshadow="2"
     inkscape:pageopacity="0.0"
     inkscape:pagecheckerboard="0"
     inkscape:deskcolor="#d1d1d1"
     inkscape:document-units="mm"
     showgrid="false"
     inkscape:zoom="4.2532751"
     inkscape:cx="439.07341"
     inkscape:cy="314.22844"
     inkscape:window-width="1920"
     inkscape:window-height="1016"
     inkscape:window-x="0"
     inkscape:window-y="27"
     inkscape:window-maximized="1"
     inkscape:current-layer="layer1" />
  <defs
     id="defs21745" />
  <g
     inkscape:label="Layer 1"
     inkscape:groupmode="layer"
     id="layer1">
    <path
       sodipodi:type="star"
       style="fill:none;stroke:#000000;stroke-width:0.264999;stroke-linecap:round;stroke-linejoin:bevel;stroke-miterlimit:12;stroke-dasharray:none;stroke-dashoffset:0;stroke-opacity:1"
       id="path18834"
       inkscape:flatsided="true"
       sodipodi:sides="4"
       sodipodi:cx="65.562737"
       sodipodi:cy="18.399923"
       sodipodi:r1="17.917637"
       sodipodi:r2="12.669682"
       sodipodi:arg1="0.77677572"
       sodipodi:arg2="1.5621739"
       inkscape:rounded="0"
       inkscape:randomized="0"
       d="M 78.34119,30.959893 53.002767,31.178377 52.784283,5.839954 78.122706,5.6214695 Z"
       transform="rotate(33.191633,-10.602349,141.81828)"
       inkscape:transform-center-x="-17.46244"
       inkscape:transform-center-y="-3.8634125" />
    <path
       style="opacity:0.511767;fill:none;stroke:#000000;stroke-width:0.265;stroke-linecap:butt;stroke-linejoin:miter;stroke-dasharray:0.265, 0.265;stroke-dashoffset:0;stroke-opacity:1"
       d="m 103.27872,84.078925 34.88062,-7.64903"
       id="path19944"
       sodipodi:nodetypes="cc" />
    <path
       style="fill:none;stroke:#000000;stroke-width:0.264583px;stroke-linecap:butt;stroke-linejoin:miter;stroke-opacity:1"
       d="m 116.89056,62.833053 7.62263,34.855067"
       id="path19946"
       sodipodi:nodetypes="cc" />
    <path
       style="fill:none;stroke:#fa0202;stroke-width:0.1;stroke-linecap:butt;stroke-linejoin:miter;stroke-dasharray:none;stroke-opacity:1"
       d="m 103.25287,83.99103 7.67629,-12.018711 9.26409,17.928444"
       id="path21677"
       sodipodi:nodetypes="ccc" />
    <path
       style="fill:none;stroke:#ec0000;stroke-width:0.1;stroke-linecap:butt;stroke-linejoin:miter;stroke-dasharray:0.1, 0.1;stroke-dashoffset:0;stroke-opacity:1"
       d="M 120.1699,89.831482 138.13288,76.402"
       id="path21429"
       sodipodi:nodetypes="cc" />
    <g
       transform="matrix(0.282222 0 0 0.282222 100.115 76.3031)"
       ns4:version="1.8.2"
       ns4:texconverter="pdflatex"
       ns4:pdfconverter="inkscape"
       ns4:text="$p_1(\\mathbf t)$"
       ns4:preamble="/home/ammedmar/.config/inkscape/extensions/textext/default_packages.tex"
       ns4:scale="0.8"
       ns4:alignment="middle center"
       ns4:stroke-to-path="0"
       ns4:inkscapeversion="1.2.2"
       ns4:jacobian_sqrt="0.282222"
       id="g29420">
      <defs
         id="id-a9c2e51b-2c6e-4503-a177-51708f91179a">
        <g
           id="id-948c6808-ab7d-44ca-8cf1-a97d9bf457e1">
          <symbol
             overflow="visible"
             id="id-33739fb1-f996-407c-aacf-9b4a5d2d4b48">
            <path
               style="stroke:none;stroke-width:0"
               d=""
               id="id-042d2aca-a1a7-477b-ae76-adda41ca2811" />
          </symbol>
          <symbol
             overflow="visible"
             id="id-75d79eb0-9633-49a7-b71d-34c32352ceae">
            <path
               style="stroke:none;stroke-width:0"
               d="M 0.453125,1.21875 C 0.375,1.5625 0.34375,1.625 -0.09375,1.625 c -0.109375,0 -0.21875,0 -0.21875,0.1875 0,0.078125 0.046875,0.125 0.125,0.125 0.265625,0 0.5625,-0.03125 0.828125,-0.03125 0.34375,0 0.671875,0.03125 1,0.03125 0.046875,0 0.171875,0 0.171875,-0.203125 C 1.8125,1.625 1.71875,1.625 1.578125,1.625 c -0.5,0 -0.5,-0.0625 -0.5,-0.15625 0,-0.125 0.421875,-1.75 0.484375,-2 0.125,0.296875 0.40625,0.640625 0.921875,0.640625 1.15625,0 2.40625,-1.453125 2.40625,-2.921875 0,-0.9375 -0.578125,-1.59375 -1.328125,-1.59375 -0.5,0 -0.984375,0.359375 -1.3125,0.75 -0.09375,-0.546875 -0.53125,-0.75 -0.890625,-0.75 -0.46875,0 -0.65625,0.390625 -0.734375,0.5625 C 0.4375,-3.5 0.3125,-2.90625 0.3125,-2.875 c 0,0.109375 0.09375,0.109375 0.109375,0.109375 0.109375,0 0.109375,-0.015625 0.171875,-0.234375 0.171875,-0.703125 0.375,-1.1875 0.734375,-1.1875 0.171875,0 0.3125,0.078125 0.3125,0.453125 0,0.234375 -0.03125,0.34375 -0.078125,0.515625 z m 1.75,-4.328125 C 2.265625,-3.375 2.546875,-3.65625 2.71875,-3.8125 c 0.359375,-0.296875 0.640625,-0.375 0.8125,-0.375 0.390625,0 0.640625,0.34375 0.640625,0.9375 0,0.59375 -0.328125,1.734375 -0.515625,2.109375 -0.34375,0.703125 -0.8125,1.03125 -1.1875,1.03125 C 1.8125,-0.109375 1.6875,-0.9375 1.6875,-1 c 0,-0.015625 0,-0.03125 0.03125,-0.15625 z m 0,0"
               id="id-f310e881-fefe-43e0-9e8c-219d30dadd6e" />
          </symbol>
          <symbol
             overflow="visible"
             id="id-fa96cafd-9b43-466b-bdeb-d38d839f7859">
            <path
               style="stroke:none;stroke-width:0"
               d=""
               id="id-7534e74c-3021-4507-bea9-b68d095bfc54" />
          </symbol>
          <symbol
             overflow="visible"
             id="id-bc6d5a7b-e7af-4aaa-8acb-2208a8b0e1a4">
            <path
               style="stroke:none;stroke-width:0"
               d="m 2.328125,-4.4375 c 0,-0.1875 0,-0.1875 -0.203125,-0.1875 -0.453125,0.4375 -1.078125,0.4375 -1.359375,0.4375 v 0.25 c 0.15625,0 0.625,0 1,-0.1875 v 3.546875 c 0,0.234375 0,0.328125 -0.6875,0.328125 H 0.8125 V 0 c 0.125,0 0.984375,-0.03125 1.234375,-0.03125 0.21875,0 1.09375,0.03125 1.25,0.03125 V -0.25 H 3.03125 c -0.703125,0 -0.703125,-0.09375 -0.703125,-0.328125 z m 0,0"
               id="id-398e85bc-f60d-4ebe-bda6-29a01b8681d9" />
          </symbol>
          <symbol
             overflow="visible"
             id="id-4d98df7e-be61-4292-9aad-d4edffd574fb">
            <path
               style="stroke:none;stroke-width:0"
               d=""
               id="id-504bc605-e2ec-4649-851f-06f432cf72d4" />
          </symbol>
          <symbol
             overflow="visible"
             id="id-fa8e4e9a-0752-4611-bc33-7ddd98292ce8">
            <path
               style="stroke:none;stroke-width:0"
               d="m 3.296875,2.390625 c 0,-0.03125 0,-0.046875 -0.171875,-0.21875 C 1.890625,0.921875 1.5625,-0.96875 1.5625,-2.5 c 0,-1.734375 0.375,-3.46875 1.609375,-4.703125 0.125,-0.125 0.125,-0.140625 0.125,-0.171875 0,-0.078125 -0.03125,-0.109375 -0.09375,-0.109375 -0.109375,0 -1,0.6875 -1.59375,1.953125 -0.5,1.09375 -0.625,2.203125 -0.625,3.03125 0,0.78125 0.109375,1.984375 0.65625,3.125 C 2.25,1.84375 3.09375,2.5 3.203125,2.5 c 0.0625,0 0.09375,-0.03125 0.09375,-0.109375 z m 0,0"
               id="id-326ec795-dca3-4a6e-aacc-8f9b0f59f71e" />
          </symbol>
          <symbol
             overflow="visible"
             id="id-bcaa5ab1-af64-436c-88f8-66adf9b467f6">
            <path
               style="stroke:none;stroke-width:0"
               d="m 2.875,-2.5 c 0,-0.765625 -0.109375,-1.96875 -0.65625,-3.109375 -0.59375,-1.21875 -1.453125,-1.875 -1.546875,-1.875 -0.0625,0 -0.109375,0.046875 -0.109375,0.109375 0,0.03125 0,0.046875 0.1875,0.234375 0.984375,0.984375 1.546875,2.5625 1.546875,4.640625 0,1.71875 -0.359375,3.46875 -1.59375,4.71875 C 0.5625,2.34375 0.5625,2.359375 0.5625,2.390625 0.5625,2.453125 0.609375,2.5 0.671875,2.5 0.765625,2.5 1.671875,1.8125 2.25,0.546875 2.765625,-0.546875 2.875,-1.65625 2.875,-2.5 Z m 0,0"
               id="id-59aacc38-19c4-47ce-aed6-393d0998ea83" />
          </symbol>
          <symbol
             overflow="visible"
             id="id-08828e89-0971-4fb1-9bba-95c91846662e">
            <path
               style="stroke:none;stroke-width:0"
               d=""
               id="id-55c83330-7f02-45a8-a02f-67273bdc15e8" />
          </symbol>
          <symbol
             overflow="visible"
             id="id-882d9792-be52-4b39-a91c-e777dd1f0125">
            <path
               style="stroke:none;stroke-width:0"
               d="m 1.03125,-3.953125 v 2.734375 c 0,1.0625 0.859375,1.28125 1.578125,1.28125 0.75,0 1.203125,-0.578125 1.203125,-1.296875 v -0.53125 H 3.34375 V -1.25 c 0,0.671875 -0.328125,0.90625 -0.609375,0.90625 -0.578125,0 -0.578125,-0.640625 -0.578125,-0.859375 v -2.75 H 3.625 v -0.46875 H 2.15625 v -1.90625 H 1.6875 c 0,1 -0.484375,1.984375 -1.484375,2.015625 v 0.359375 z m 0,0"
               id="id-2fb7c6c7-f27e-4ff8-9e1c-e604fb0961f5" />
          </symbol>
        </g>
      </defs>
      <g
         id="id-d647cb39-bce8-4500-bfba-d8f82c7fdbed"
         transform="translate(-148.4,-127.281)">
        <g
           style="fill:#000000;fill-opacity:1"
           id="id-341a5001-45d0-48b2-ae9c-124a6f844902">
          <g
             transform="translate(148.712,134.765)"
             id="g29400">
            <path
               style="stroke:none;stroke-width:0"
               d="M 0.453125,1.21875 C 0.375,1.5625 0.34375,1.625 -0.09375,1.625 c -0.109375,0 -0.21875,0 -0.21875,0.1875 0,0.078125 0.046875,0.125 0.125,0.125 0.265625,0 0.5625,-0.03125 0.828125,-0.03125 0.34375,0 0.671875,0.03125 1,0.03125 0.046875,0 0.171875,0 0.171875,-0.203125 C 1.8125,1.625 1.71875,1.625 1.578125,1.625 c -0.5,0 -0.5,-0.0625 -0.5,-0.15625 0,-0.125 0.421875,-1.75 0.484375,-2 0.125,0.296875 0.40625,0.640625 0.921875,0.640625 1.15625,0 2.40625,-1.453125 2.40625,-2.921875 0,-0.9375 -0.578125,-1.59375 -1.328125,-1.59375 -0.5,0 -0.984375,0.359375 -1.3125,0.75 -0.09375,-0.546875 -0.53125,-0.75 -0.890625,-0.75 -0.46875,0 -0.65625,0.390625 -0.734375,0.5625 C 0.4375,-3.5 0.3125,-2.90625 0.3125,-2.875 c 0,0.109375 0.09375,0.109375 0.109375,0.109375 0.109375,0 0.109375,-0.015625 0.171875,-0.234375 0.171875,-0.703125 0.375,-1.1875 0.734375,-1.1875 0.171875,0 0.3125,0.078125 0.3125,0.453125 0,0.234375 -0.03125,0.34375 -0.078125,0.515625 z m 1.75,-4.328125 C 2.265625,-3.375 2.546875,-3.65625 2.71875,-3.8125 c 0.359375,-0.296875 0.640625,-0.375 0.8125,-0.375 0.390625,0 0.640625,0.34375 0.640625,0.9375 0,0.59375 -0.328125,1.734375 -0.515625,2.109375 -0.34375,0.703125 -0.8125,1.03125 -1.1875,1.03125 C 1.8125,-0.109375 1.6875,-0.9375 1.6875,-1 c 0,-0.015625 0,-0.03125 0.03125,-0.15625 z m 0,0"
               id="id-41a8d579-db8f-4b5d-b36c-4f6e79ab36eb" />
          </g>
        </g>
        <g
           style="fill:#000000;fill-opacity:1"
           id="id-98fb429b-ca09-4b83-a9c5-361efd0b9d85">
          <g
             transform="translate(153.725,136.259)"
             id="g29404">
            <path
               style="stroke:none;stroke-width:0"
               d="m 2.328125,-4.4375 c 0,-0.1875 0,-0.1875 -0.203125,-0.1875 -0.453125,0.4375 -1.078125,0.4375 -1.359375,0.4375 v 0.25 c 0.15625,0 0.625,0 1,-0.1875 v 3.546875 c 0,0.234375 0,0.328125 -0.6875,0.328125 H 0.8125 V 0 c 0.125,0 0.984375,-0.03125 1.234375,-0.03125 0.21875,0 1.09375,0.03125 1.25,0.03125 V -0.25 H 3.03125 c -0.703125,0 -0.703125,-0.09375 -0.703125,-0.328125 z m 0,0"
               id="id-03113a94-aa9d-4a68-8169-09766cd99dfa" />
          </g>
        </g>
        <g
           style="fill:#000000;fill-opacity:1"
           id="id-12b89b6c-113e-47f0-b385-405aec63a64b">
          <g
             transform="translate(158.194,134.765)"
             id="g29408">
            <path
               style="stroke:none;stroke-width:0"
               d="m 3.296875,2.390625 c 0,-0.03125 0,-0.046875 -0.171875,-0.21875 C 1.890625,0.921875 1.5625,-0.96875 1.5625,-2.5 c 0,-1.734375 0.375,-3.46875 1.609375,-4.703125 0.125,-0.125 0.125,-0.140625 0.125,-0.171875 0,-0.078125 -0.03125,-0.109375 -0.09375,-0.109375 -0.109375,0 -1,0.6875 -1.59375,1.953125 -0.5,1.09375 -0.625,2.203125 -0.625,3.03125 0,0.78125 0.109375,1.984375 0.65625,3.125 C 2.25,1.84375 3.09375,2.5 3.203125,2.5 c 0.0625,0 0.09375,-0.03125 0.09375,-0.109375 z m 0,0"
               id="id-e814d66c-ea94-4859-ac2a-56c2fe7fcd51" />
          </g>
        </g>
        <g
           style="fill:#000000;fill-opacity:1"
           id="id-f9b48c92-6e5d-4702-a88b-fe59b66e26d0">
          <g
             transform="translate(162.069,134.765)"
             id="g29412">
            <path
               style="stroke:none;stroke-width:0"
               d="m 1.03125,-3.953125 v 2.734375 c 0,1.0625 0.859375,1.28125 1.578125,1.28125 0.75,0 1.203125,-0.578125 1.203125,-1.296875 v -0.53125 H 3.34375 V -1.25 c 0,0.671875 -0.328125,0.90625 -0.609375,0.90625 -0.578125,0 -0.578125,-0.640625 -0.578125,-0.859375 v -2.75 H 3.625 v -0.46875 H 2.15625 v -1.90625 H 1.6875 c 0,1 -0.484375,1.984375 -1.484375,2.015625 v 0.359375 z m 0,0"
               id="id-995e01ed-0b3a-462b-981e-8c0499fba2fd" />
          </g>
        </g>
        <g
           style="fill:#000000;fill-opacity:1"
           id="id-24f3b52b-4980-4c67-bf82-bcb87a363125">
          <g
             transform="translate(166.524,134.765)"
             id="g29416">
            <path
               style="stroke:none;stroke-width:0"
               d="m 2.875,-2.5 c 0,-0.765625 -0.109375,-1.96875 -0.65625,-3.109375 -0.59375,-1.21875 -1.453125,-1.875 -1.546875,-1.875 -0.0625,0 -0.109375,0.046875 -0.109375,0.109375 0,0.03125 0,0.046875 0.1875,0.234375 0.984375,0.984375 1.546875,2.5625 1.546875,4.640625 0,1.71875 -0.359375,3.46875 -1.59375,4.71875 C 0.5625,2.34375 0.5625,2.359375 0.5625,2.390625 0.5625,2.453125 0.609375,2.5 0.671875,2.5 0.765625,2.5 1.671875,1.8125 2.25,0.546875 2.765625,-0.546875 2.875,-1.65625 2.875,-2.5 Z m 0,0"
               id="id-150da3fc-bafd-49dc-b201-604016601381" />
          </g>
        </g>
      </g>
    </g>
    <g
       transform="matrix(0.282222 0 0 0.282222 110.399 83.4529)"
       ns4:version="1.8.2"
       ns4:texconverter="pdflatex"
       ns4:pdfconverter="inkscape"
       ns4:text="$p_2(\\mathbf t)$"
       ns4:preamble="/home/ammedmar/.config/inkscape/extensions/textext/default_packages.tex"
       ns4:scale="0.8"
       ns4:alignment="middle center"
       ns4:stroke-to-path="0"
       ns4:inkscapeversion="1.2.2"
       ns4:jacobian_sqrt="0.282222"
       id="g29813">
      <defs
         id="id-705f8b91-a923-4e15-bb5c-4b5b4e7cfedf">
        <g
           id="id-333d3dde-a56e-4a8a-9ad4-5d973b1f162a">
          <symbol
             overflow="visible"
             id="id-20ac8b01-c9c1-44c4-9a31-445de9d2cbb3">
            <path
               style="stroke:none"
               d=""
               id="id-30787531-8c8b-4e36-b145-fd03878f7dc2" />
          </symbol>
          <symbol
             overflow="visible"
             id="id-e50c74d9-7827-4134-9d8c-bf051fbb1c2b">
            <path
               style="stroke:none"
               d="M 0.453125,1.21875 C 0.375,1.5625 0.34375,1.625 -0.09375,1.625 c -0.109375,0 -0.21875,0 -0.21875,0.1875 0,0.078125 0.046875,0.125 0.125,0.125 0.265625,0 0.5625,-0.03125 0.828125,-0.03125 0.34375,0 0.671875,0.03125 1,0.03125 0.046875,0 0.171875,0 0.171875,-0.203125 C 1.8125,1.625 1.71875,1.625 1.578125,1.625 c -0.5,0 -0.5,-0.0625 -0.5,-0.15625 0,-0.125 0.421875,-1.75 0.484375,-2 0.125,0.296875 0.40625,0.640625 0.921875,0.640625 1.15625,0 2.40625,-1.453125 2.40625,-2.921875 0,-0.9375 -0.578125,-1.59375 -1.328125,-1.59375 -0.5,0 -0.984375,0.359375 -1.3125,0.75 -0.09375,-0.546875 -0.53125,-0.75 -0.890625,-0.75 -0.46875,0 -0.65625,0.390625 -0.734375,0.5625 C 0.4375,-3.5 0.3125,-2.90625 0.3125,-2.875 c 0,0.109375 0.09375,0.109375 0.109375,0.109375 0.109375,0 0.109375,-0.015625 0.171875,-0.234375 0.171875,-0.703125 0.375,-1.1875 0.734375,-1.1875 0.171875,0 0.3125,0.078125 0.3125,0.453125 0,0.234375 -0.03125,0.34375 -0.078125,0.515625 z m 1.75,-4.328125 C 2.265625,-3.375 2.546875,-3.65625 2.71875,-3.8125 c 0.359375,-0.296875 0.640625,-0.375 0.8125,-0.375 0.390625,0 0.640625,0.34375 0.640625,0.9375 0,0.59375 -0.328125,1.734375 -0.515625,2.109375 -0.34375,0.703125 -0.8125,1.03125 -1.1875,1.03125 C 1.8125,-0.109375 1.6875,-0.9375 1.6875,-1 c 0,-0.015625 0,-0.03125 0.03125,-0.15625 z m 0,0"
               id="id-3b9ba1cc-3567-4487-be4b-e650b3d4f44c" />
          </symbol>
          <symbol
             overflow="visible"
             id="id-005d68ee-dc0e-4704-ad75-67155c2421f9">
            <path
               style="stroke:none"
               d=""
               id="id-1b708b67-27f0-4bcc-93bb-6256ddfdbeb4" />
          </symbol>
          <symbol
             overflow="visible"
             id="id-ab8c694f-fa84-4b96-8d79-fb4d843274d9">
            <path
               style="stroke:none"
               d="M 3.515625,-1.265625 H 3.28125 c -0.015625,0.15625 -0.09375,0.5625 -0.1875,0.625 C 3.046875,-0.59375 2.515625,-0.59375 2.40625,-0.59375 H 1.125 c 0.734375,-0.640625 0.984375,-0.84375 1.390625,-1.171875 0.515625,-0.40625 1,-0.84375 1,-1.5 0,-0.84375 -0.734375,-1.359375 -1.625,-1.359375 -0.859375,0 -1.453125,0.609375 -1.453125,1.25 0,0.34375 0.296875,0.390625 0.375,0.390625 0.15625,0 0.359375,-0.125 0.359375,-0.375 0,-0.125 -0.046875,-0.375 -0.40625,-0.375 C 0.984375,-4.21875 1.453125,-4.375 1.78125,-4.375 c 0.703125,0 1.0625,0.546875 1.0625,1.109375 0,0.609375 -0.4375,1.078125 -0.65625,1.328125 L 0.515625,-0.265625 C 0.4375,-0.203125 0.4375,-0.1875 0.4375,0 h 2.875 z m 0,0"
               id="id-379ea010-3a5b-439d-9ed2-eec499d55846" />
          </symbol>
          <symbol
             overflow="visible"
             id="id-d5554e05-9654-4def-a0b5-efd45f910e9f">
            <path
               style="stroke:none"
               d=""
               id="id-7fa185b8-5fdd-427a-a477-793d32fbf292" />
          </symbol>
          <symbol
             overflow="visible"
             id="id-953c7959-ed31-4722-a3df-f0fd8aaf165e">
            <path
               style="stroke:none"
               d="m 3.296875,2.390625 c 0,-0.03125 0,-0.046875 -0.171875,-0.21875 C 1.890625,0.921875 1.5625,-0.96875 1.5625,-2.5 c 0,-1.734375 0.375,-3.46875 1.609375,-4.703125 0.125,-0.125 0.125,-0.140625 0.125,-0.171875 0,-0.078125 -0.03125,-0.109375 -0.09375,-0.109375 -0.109375,0 -1,0.6875 -1.59375,1.953125 -0.5,1.09375 -0.625,2.203125 -0.625,3.03125 0,0.78125 0.109375,1.984375 0.65625,3.125 C 2.25,1.84375 3.09375,2.5 3.203125,2.5 c 0.0625,0 0.09375,-0.03125 0.09375,-0.109375 z m 0,0"
               id="id-2d5c2e6f-3a6c-4681-b2fc-1c1193e66b7c" />
          </symbol>
          <symbol
             overflow="visible"
             id="id-ce28b853-5b94-4ba4-bc30-898e6d7c8c61">
            <path
               style="stroke:none"
               d="m 2.875,-2.5 c 0,-0.765625 -0.109375,-1.96875 -0.65625,-3.109375 -0.59375,-1.21875 -1.453125,-1.875 -1.546875,-1.875 -0.0625,0 -0.109375,0.046875 -0.109375,0.109375 0,0.03125 0,0.046875 0.1875,0.234375 0.984375,0.984375 1.546875,2.5625 1.546875,4.640625 0,1.71875 -0.359375,3.46875 -1.59375,4.71875 C 0.5625,2.34375 0.5625,2.359375 0.5625,2.390625 0.5625,2.453125 0.609375,2.5 0.671875,2.5 0.765625,2.5 1.671875,1.8125 2.25,0.546875 2.765625,-0.546875 2.875,-1.65625 2.875,-2.5 Z m 0,0"
               id="id-35ed75a8-2ed2-49a7-a00c-bf00ac529b58" />
          </symbol>
          <symbol
             overflow="visible"
             id="id-a51ce3a2-9742-4846-92ff-0010c057edbc">
            <path
               style="stroke:none"
               d=""
               id="id-46094270-f3dc-4251-a94a-6c91c12e5d4e" />
          </symbol>
          <symbol
             overflow="visible"
             id="id-ecf289d3-339d-4fe8-a15e-5209c6abbd92">
            <path
               style="stroke:none"
               d="m 1.03125,-3.953125 v 2.734375 c 0,1.0625 0.859375,1.28125 1.578125,1.28125 0.75,0 1.203125,-0.578125 1.203125,-1.296875 v -0.53125 H 3.34375 V -1.25 c 0,0.671875 -0.328125,0.90625 -0.609375,0.90625 -0.578125,0 -0.578125,-0.640625 -0.578125,-0.859375 v -2.75 H 3.625 v -0.46875 H 2.15625 v -1.90625 H 1.6875 c 0,1 -0.484375,1.984375 -1.484375,2.015625 v 0.359375 z m 0,0"
               id="id-d556420c-26f0-4b21-86ad-32b2ec08ddfb" />
          </symbol>
        </g>
      </defs>
      <g
         id="id-cece194d-63f2-401c-95ba-0ea4413b5fda"
         transform="translate(-148.4, -127.281)">
        <g
           style="fill:#000000;fill-opacity:1"
           id="id-b3c8ab6f-0701-4f7f-8dc7-898edd60a6d1">
          <g
             transform="translate(148.712, 134.765)"
             id="g30002">
            <path
               style="stroke:none"
               d="M 0.453125,1.21875 C 0.375,1.5625 0.34375,1.625 -0.09375,1.625 c -0.109375,0 -0.21875,0 -0.21875,0.1875 0,0.078125 0.046875,0.125 0.125,0.125 0.265625,0 0.5625,-0.03125 0.828125,-0.03125 0.34375,0 0.671875,0.03125 1,0.03125 0.046875,0 0.171875,0 0.171875,-0.203125 C 1.8125,1.625 1.71875,1.625 1.578125,1.625 c -0.5,0 -0.5,-0.0625 -0.5,-0.15625 0,-0.125 0.421875,-1.75 0.484375,-2 0.125,0.296875 0.40625,0.640625 0.921875,0.640625 1.15625,0 2.40625,-1.453125 2.40625,-2.921875 0,-0.9375 -0.578125,-1.59375 -1.328125,-1.59375 -0.5,0 -0.984375,0.359375 -1.3125,0.75 -0.09375,-0.546875 -0.53125,-0.75 -0.890625,-0.75 -0.46875,0 -0.65625,0.390625 -0.734375,0.5625 C 0.4375,-3.5 0.3125,-2.90625 0.3125,-2.875 c 0,0.109375 0.09375,0.109375 0.109375,0.109375 0.109375,0 0.109375,-0.015625 0.171875,-0.234375 0.171875,-0.703125 0.375,-1.1875 0.734375,-1.1875 0.171875,0 0.3125,0.078125 0.3125,0.453125 0,0.234375 -0.03125,0.34375 -0.078125,0.515625 z m 1.75,-4.328125 C 2.265625,-3.375 2.546875,-3.65625 2.71875,-3.8125 c 0.359375,-0.296875 0.640625,-0.375 0.8125,-0.375 0.390625,0 0.640625,0.34375 0.640625,0.9375 0,0.59375 -0.328125,1.734375 -0.515625,2.109375 -0.34375,0.703125 -0.8125,1.03125 -1.1875,1.03125 C 1.8125,-0.109375 1.6875,-0.9375 1.6875,-1 c 0,-0.015625 0,-0.03125 0.03125,-0.15625 z m 0,0"
               id="id-9124ae81-55da-4ba7-82c7-2ec334c6d929" />
          </g>
        </g>
        <g
           style="fill:#000000;fill-opacity:1"
           id="id-2fd767fd-b3ea-45c1-bb30-8a2b7f32876e">
          <g
             transform="translate(153.725, 136.259)"
             id="g30006">
            <path
               style="stroke:none"
               d="M 3.515625,-1.265625 H 3.28125 c -0.015625,0.15625 -0.09375,0.5625 -0.1875,0.625 C 3.046875,-0.59375 2.515625,-0.59375 2.40625,-0.59375 H 1.125 c 0.734375,-0.640625 0.984375,-0.84375 1.390625,-1.171875 0.515625,-0.40625 1,-0.84375 1,-1.5 0,-0.84375 -0.734375,-1.359375 -1.625,-1.359375 -0.859375,0 -1.453125,0.609375 -1.453125,1.25 0,0.34375 0.296875,0.390625 0.375,0.390625 0.15625,0 0.359375,-0.125 0.359375,-0.375 0,-0.125 -0.046875,-0.375 -0.40625,-0.375 C 0.984375,-4.21875 1.453125,-4.375 1.78125,-4.375 c 0.703125,0 1.0625,0.546875 1.0625,1.109375 0,0.609375 -0.4375,1.078125 -0.65625,1.328125 L 0.515625,-0.265625 C 0.4375,-0.203125 0.4375,-0.1875 0.4375,0 h 2.875 z m 0,0"
               id="id-7e32ae0e-e547-494a-b551-1b9da39c3bd7" />
          </g>
        </g>
        <g
           style="fill:#000000;fill-opacity:1"
           id="id-d3bc24af-661a-4fa2-beed-aea6ed349dcc">
          <g
             transform="translate(158.194, 134.765)"
             id="g30010">
            <path
               style="stroke:none"
               d="m 3.296875,2.390625 c 0,-0.03125 0,-0.046875 -0.171875,-0.21875 C 1.890625,0.921875 1.5625,-0.96875 1.5625,-2.5 c 0,-1.734375 0.375,-3.46875 1.609375,-4.703125 0.125,-0.125 0.125,-0.140625 0.125,-0.171875 0,-0.078125 -0.03125,-0.109375 -0.09375,-0.109375 -0.109375,0 -1,0.6875 -1.59375,1.953125 -0.5,1.09375 -0.625,2.203125 -0.625,3.03125 0,0.78125 0.109375,1.984375 0.65625,3.125 C 2.25,1.84375 3.09375,2.5 3.203125,2.5 c 0.0625,0 0.09375,-0.03125 0.09375,-0.109375 z m 0,0"
               id="id-8d2c431a-1537-4943-b380-dcd5de8d0640" />
          </g>
        </g>
        <g
           style="fill:#000000;fill-opacity:1"
           id="id-0995f16b-5367-4c90-9d81-279ee53390fc">
          <g
             transform="translate(162.069, 134.765)"
             id="g30014">
            <path
               style="stroke:none"
               d="m 1.03125,-3.953125 v 2.734375 c 0,1.0625 0.859375,1.28125 1.578125,1.28125 0.75,0 1.203125,-0.578125 1.203125,-1.296875 v -0.53125 H 3.34375 V -1.25 c 0,0.671875 -0.328125,0.90625 -0.609375,0.90625 -0.578125,0 -0.578125,-0.640625 -0.578125,-0.859375 v -2.75 H 3.625 v -0.46875 H 2.15625 v -1.90625 H 1.6875 c 0,1 -0.484375,1.984375 -1.484375,2.015625 v 0.359375 z m 0,0"
               id="id-8e45e248-eb98-403e-a051-3458b0d2ee74" />
          </g>
        </g>
        <g
           style="fill:#000000;fill-opacity:1"
           id="id-2df002d9-725b-4366-bc67-b2d71e5e338e">
          <g
             transform="translate(166.524, 134.765)"
             id="g30018">
            <path
               style="stroke:none"
               d="m 2.875,-2.5 c 0,-0.765625 -0.109375,-1.96875 -0.65625,-3.109375 -0.59375,-1.21875 -1.453125,-1.875 -1.546875,-1.875 -0.0625,0 -0.109375,0.046875 -0.109375,0.109375 0,0.03125 0,0.046875 0.1875,0.234375 0.984375,0.984375 1.546875,2.5625 1.546875,4.640625 0,1.71875 -0.359375,3.46875 -1.59375,4.71875 C 0.5625,2.34375 0.5625,2.359375 0.5625,2.390625 0.5625,2.453125 0.609375,2.5 0.671875,2.5 0.765625,2.5 1.671875,1.8125 2.25,0.546875 2.765625,-0.546875 2.875,-1.65625 2.875,-2.5 Z m 0,0"
               id="id-539b3ecd-4a0e-4570-b89c-ad99bb4cee57" />
          </g>
        </g>
      </g>
    </g>
    <g
       transform="matrix(0.282222,0,0,0.282222,101.08202,83.508466)"
       ns4:version="1.8.2"
       ns4:texconverter="pdflatex"
       ns4:pdfconverter="inkscape"
       ns4:text="0\n"
       ns4:preamble="/home/ammedmar/.config/inkscape/extensions/textext/default_packages.tex"
       ns4:scale="0.8"
       ns4:alignment="middle center"
       ns4:stroke-to-path="0"
       ns4:inkscapeversion="1.2.2"
       ns4:jacobian_sqrt="0.282222"
       id="g30237">
      <defs
         id="id-73b59620-b886-46ea-8d0c-3afb7678b0ce">
        <g
           id="id-990647fc-a0dc-4571-a572-d9d0868135e2">
          <symbol
             overflow="visible"
             id="id-84fb2320-f82f-4a2f-8dec-64a615cbf614">
            <path
               style="stroke:none;stroke-width:0"
               d=""
               id="id-50d8e4f1-dd5b-4a36-8144-17a6d54d5870" />
          </symbol>
          <symbol
             overflow="visible"
             id="id-e90e8331-aeb9-4ce9-b30d-c9f96815de7e">
            <path
               style="stroke:none;stroke-width:0"
               d="m 4.578125,-3.1875 c 0,-0.796875 -0.046875,-1.59375 -0.390625,-2.328125 -0.453125,-0.96875 -1.28125,-1.125 -1.6875,-1.125 -0.609375,0 -1.328125,0.265625 -1.75,1.1875 -0.3125,0.6875 -0.359375,1.46875 -0.359375,2.265625 0,0.75 0.03125,1.640625 0.453125,2.40625 0.421875,0.796875 1.15625,1 1.640625,1 0.53125,0 1.296875,-0.203125 1.734375,-1.15625 0.3125,-0.6875 0.359375,-1.46875 0.359375,-2.25 z M 2.484375,0 C 2.09375,0 1.5,-0.25 1.328125,-1.203125 1.21875,-1.796875 1.21875,-2.71875 1.21875,-3.3125 c 0,-0.640625 0,-1.296875 0.078125,-1.828125 0.1875,-1.1875 0.9375,-1.28125 1.1875,-1.28125 0.328125,0 0.984375,0.1875 1.171875,1.171875 0.109375,0.5625 0.109375,1.3125 0.109375,1.9375 0,0.75 0,1.421875 -0.109375,2.0625 C 3.5,-0.296875 2.9375,0 2.484375,0 Z m 0,0"
               id="id-c16a9659-1167-4b96-bc85-d0fe4f61b21b" />
          </symbol>
        </g>
      </defs>
      <g
         id="id-514de818-ac0a-4765-be20-c68a3d82ec22"
         transform="translate(-149.103,-128.124)">
        <g
           style="fill:#000000;fill-opacity:1"
           id="id-97ecd022-3a6f-4247-bc04-360024fe50d0">
          <g
             transform="translate(148.712,134.765)"
             id="g30233">
            <path
               style="stroke:none;stroke-width:0"
               d="m 4.578125,-3.1875 c 0,-0.796875 -0.046875,-1.59375 -0.390625,-2.328125 -0.453125,-0.96875 -1.28125,-1.125 -1.6875,-1.125 -0.609375,0 -1.328125,0.265625 -1.75,1.1875 -0.3125,0.6875 -0.359375,1.46875 -0.359375,2.265625 0,0.75 0.03125,1.640625 0.453125,2.40625 0.421875,0.796875 1.15625,1 1.640625,1 0.53125,0 1.296875,-0.203125 1.734375,-1.15625 0.3125,-0.6875 0.359375,-1.46875 0.359375,-2.25 z M 2.484375,0 C 2.09375,0 1.5,-0.25 1.328125,-1.203125 1.21875,-1.796875 1.21875,-2.71875 1.21875,-3.3125 c 0,-0.640625 0,-1.296875 0.078125,-1.828125 0.1875,-1.1875 0.9375,-1.28125 1.1875,-1.28125 0.328125,0 0.984375,0.1875 1.171875,1.171875 0.109375,0.5625 0.109375,1.3125 0.109375,1.9375 0,0.75 0,1.421875 -0.109375,2.0625 C 3.5,-0.296875 2.9375,0 2.484375,0 Z m 0,0"
               id="id-a77e5399-5ac4-44a2-8787-a95e93331ab3" />
          </g>
        </g>
      </g>
    </g>
    <g
       transform="matrix(0.282222,0,0,0.282222,116.24349,59.934682)"
       ns4:version="1.8.2"
       ns4:texconverter="pdflatex"
       ns4:pdfconverter="inkscape"
       ns4:text="1"
       ns4:preamble="/home/ammedmar/.config/inkscape/extensions/textext/default_packages.tex"
       ns4:scale="0.8"
       ns4:alignment="middle center"
       ns4:stroke-to-path="0"
       ns4:inkscapeversion="1.2.2"
       ns4:jacobian_sqrt="0.282222"
       id="g30449">
      <defs
         id="id-14a9df65-e8c5-4c64-9fb0-596d007f694c">
        <g
           id="id-fa03abef-0f42-4d3d-959b-b40dc8eafd5c">
          <symbol
             overflow="visible"
             id="id-4e114e7c-fff5-485d-bdef-83f76cf9141c">
            <path
               style="stroke:none;stroke-width:0"
               d=""
               id="id-aa303251-ff2b-4ec1-a5e3-76a27e0518e6" />
          </symbol>
          <symbol
             overflow="visible"
             id="id-a8ae270c-0af4-40e0-a4b4-3237d78a5000">
            <path
               style="stroke:none;stroke-width:0"
               d="m 2.9375,-6.375 c 0,-0.25 0,-0.265625 -0.234375,-0.265625 C 2.078125,-6 1.203125,-6 0.890625,-6 v 0.3125 c 0.203125,0 0.78125,0 1.296875,-0.265625 v 5.171875 c 0,0.359375 -0.03125,0.46875 -0.921875,0.46875 h -0.3125 V 0 c 0.34375,-0.03125 1.203125,-0.03125 1.609375,-0.03125 0.390625,0 1.265625,0 1.609375,0.03125 v -0.3125 h -0.3125 c -0.90625,0 -0.921875,-0.109375 -0.921875,-0.46875 z m 0,0"
               id="id-8d240ec9-bc6f-470b-91f6-e11023e5dd3e" />
          </symbol>
        </g>
      </defs>
      <g
         id="id-345311f4-49ac-4748-bf23-f410b6651bde"
         transform="translate(-149.603,-128.124)">
        <g
           style="fill:#000000;fill-opacity:1"
           id="id-3fc9b5a9-9dc0-4aa7-bef5-a4d6e87632f8">
          <g
             transform="translate(148.712,134.765)"
             id="g30445">
            <path
               style="stroke:none;stroke-width:0"
               d="m 2.9375,-6.375 c 0,-0.25 0,-0.265625 -0.234375,-0.265625 C 2.078125,-6 1.203125,-6 0.890625,-6 v 0.3125 c 0.203125,0 0.78125,0 1.296875,-0.265625 v 5.171875 c 0,0.359375 -0.03125,0.46875 -0.921875,0.46875 h -0.3125 V 0 c 0.34375,-0.03125 1.203125,-0.03125 1.609375,-0.03125 0.390625,0 1.265625,0 1.609375,0.03125 v -0.3125 h -0.3125 c -0.90625,0 -0.921875,-0.109375 -0.921875,-0.46875 z m 0,0"
               id="id-5c723003-e8b5-4d8a-9f7b-e2947b94f0aa" />
          </g>
        </g>
      </g>
    </g>
    <g
       transform="matrix(0.282222,0,0,0.282222,123.98468,98.50527)"
       ns4:version="1.8.2"
       ns4:texconverter="pdflatex"
       ns4:pdfconverter="inkscape"
       ns4:text="2"
       ns4:preamble="/home/ammedmar/.config/inkscape/extensions/textext/default_packages.tex"
       ns4:scale="0.8"
       ns4:alignment="middle center"
       ns4:stroke-to-path="0"
       ns4:inkscapeversion="1.2.2"
       ns4:jacobian_sqrt="0.282222"
       id="g30683">
      <defs
         id="id-8ccbdde0-3c02-436d-a33d-ff2baf0df814">
        <g
           id="id-57c370a7-6525-4e03-a326-4fb138c4cc32">
          <symbol
             overflow="visible"
             id="id-48c8d97c-59ff-48a9-94ea-ab79c5ba3e8a">
            <path
               style="stroke:none;stroke-width:0"
               d=""
               id="id-7f4a7fe0-3d4b-4b04-88b0-1669042ad5d2" />
          </symbol>
          <symbol
             overflow="visible"
             id="id-2180e850-7e8e-4c75-bd78-f8792c915f90">
            <path
               style="stroke:none;stroke-width:0"
               d="m 1.265625,-0.765625 1.0625,-1.03125 c 1.546875,-1.375 2.140625,-1.90625 2.140625,-2.90625 0,-1.140625 -0.890625,-1.9375 -2.109375,-1.9375 -1.125,0 -1.859375,0.921875 -1.859375,1.8125 0,0.546875 0.5,0.546875 0.53125,0.546875 0.171875,0 0.515625,-0.109375 0.515625,-0.53125 0,-0.25 -0.1875,-0.515625 -0.53125,-0.515625 -0.078125,0 -0.09375,0 -0.125,0.015625 0.21875,-0.65625 0.765625,-1.015625 1.34375,-1.015625 0.90625,0 1.328125,0.8125 1.328125,1.625 C 3.5625,-3.90625 3.078125,-3.125 2.515625,-2.5 l -1.90625,2.125 C 0.5,-0.265625 0.5,-0.234375 0.5,0 H 4.203125 L 4.46875,-1.734375 H 4.234375 C 4.171875,-1.4375 4.109375,-1 4,-0.84375 3.9375,-0.765625 3.28125,-0.765625 3.0625,-0.765625 Z m 0,0"
               id="id-4756dd0a-9884-4e08-b154-8b113d3e196b" />
          </symbol>
        </g>
      </defs>
      <g
         id="id-be38761d-5943-492e-9538-91f6711a70de"
         transform="translate(-149.212,-128.124)">
        <g
           style="fill:#000000;fill-opacity:1"
           id="id-86265060-c46f-4cd5-be50-88225bb5868c">
          <g
             transform="translate(148.712,134.765)"
             id="g30679">
            <path
               style="stroke:none;stroke-width:0"
               d="m 1.265625,-0.765625 1.0625,-1.03125 c 1.546875,-1.375 2.140625,-1.90625 2.140625,-2.90625 0,-1.140625 -0.890625,-1.9375 -2.109375,-1.9375 -1.125,0 -1.859375,0.921875 -1.859375,1.8125 0,0.546875 0.5,0.546875 0.53125,0.546875 0.171875,0 0.515625,-0.109375 0.515625,-0.53125 0,-0.25 -0.1875,-0.515625 -0.53125,-0.515625 -0.078125,0 -0.09375,0 -0.125,0.015625 0.21875,-0.65625 0.765625,-1.015625 1.34375,-1.015625 0.90625,0 1.328125,0.8125 1.328125,1.625 C 3.5625,-3.90625 3.078125,-3.125 2.515625,-2.5 l -1.90625,2.125 C 0.5,-0.265625 0.5,-0.234375 0.5,0 H 4.203125 L 4.46875,-1.734375 H 4.234375 C 4.171875,-1.4375 4.109375,-1 4,-0.84375 3.9375,-0.765625 3.28125,-0.765625 3.0625,-0.765625 Z m 0,0"
               id="id-d9c36ec7-9194-4e17-98fe-bcffd5c65fcd" />
          </g>
        </g>
      </g>
    </g>
    <g
       transform="matrix(0.282222,0,0,0.282222,139.00756,75.226629)"
       ns4:version="1.8.2"
       ns4:texconverter="pdflatex"
       ns4:pdfconverter="inkscape"
       ns4:text="3"
       ns4:preamble="/home/ammedmar/.config/inkscape/extensions/textext/default_packages.tex"
       ns4:scale="0.8"
       ns4:alignment="middle center"
       ns4:stroke-to-path="0"
       ns4:inkscapeversion="1.2.2"
       ns4:jacobian_sqrt="0.282222"
       id="g30939">
      <defs
         id="id-c97891d0-49a0-4fd0-9a2d-06d2faa9d2b1">
        <g
           id="id-0f82bb66-c587-42de-935a-e6deae69efea">
          <symbol
             overflow="visible"
             id="id-1e9ef15b-b138-424f-bcd4-3ca11b5028eb">
            <path
               style="stroke:none;stroke-width:0"
               d=""
               id="id-62745418-bb6e-49f5-b9fa-58d5bb809f57" />
          </symbol>
          <symbol
             overflow="visible"
             id="id-d1d05045-1833-4521-8fb8-9953ab791bcc">
            <path
               style="stroke:none;stroke-width:0"
               d="m 2.890625,-3.515625 c 0.8125,-0.265625 1.390625,-0.953125 1.390625,-1.75 0,-0.8125 -0.875,-1.375 -1.828125,-1.375 -1,0 -1.765625,0.59375 -1.765625,1.359375 0,0.328125 0.21875,0.515625 0.515625,0.515625 0.296875,0 0.5,-0.21875 0.5,-0.515625 0,-0.484375 -0.46875,-0.484375 -0.609375,-0.484375 0.296875,-0.5 0.953125,-0.625 1.3125,-0.625 0.421875,0 0.96875,0.21875 0.96875,1.109375 0,0.125 -0.03125,0.703125 -0.28125,1.140625 C 2.796875,-3.65625 2.453125,-3.625 2.203125,-3.625 2.125,-3.609375 1.890625,-3.59375 1.8125,-3.59375 c -0.078125,0.015625 -0.140625,0.03125 -0.140625,0.125 0,0.109375 0.0625,0.109375 0.234375,0.109375 h 0.4375 c 0.8125,0 1.1875,0.671875 1.1875,1.65625 0,1.359375 -0.6875,1.640625 -1.125,1.640625 -0.4375,0 -1.1875,-0.171875 -1.53125,-0.75 0.34375,0.046875 0.65625,-0.171875 0.65625,-0.546875 0,-0.359375 -0.265625,-0.5625 -0.546875,-0.5625 -0.25,0 -0.5625,0.140625 -0.5625,0.578125 0,0.90625 0.921875,1.5625 2.015625,1.5625 1.21875,0 2.125,-0.90625 2.125,-1.921875 0,-0.8125 -0.640625,-1.59375 -1.671875,-1.8125 z m 0,0"
               id="id-510c6693-de3f-42c3-80b7-f0d07c71c055" />
          </symbol>
        </g>
      </defs>
      <g
         id="id-6a7e2f11-38d6-4aa2-8242-724c699a29f9"
         transform="translate(-149.134,-128.124)">
        <g
           style="fill:#000000;fill-opacity:1"
           id="id-a0b22316-555b-4d5e-b4d6-e0c47a4df262">
          <g
             transform="translate(148.712,134.765)"
             id="g30935">
            <path
               style="stroke:none;stroke-width:0"
               d="m 2.890625,-3.515625 c 0.8125,-0.265625 1.390625,-0.953125 1.390625,-1.75 0,-0.8125 -0.875,-1.375 -1.828125,-1.375 -1,0 -1.765625,0.59375 -1.765625,1.359375 0,0.328125 0.21875,0.515625 0.515625,0.515625 0.296875,0 0.5,-0.21875 0.5,-0.515625 0,-0.484375 -0.46875,-0.484375 -0.609375,-0.484375 0.296875,-0.5 0.953125,-0.625 1.3125,-0.625 0.421875,0 0.96875,0.21875 0.96875,1.109375 0,0.125 -0.03125,0.703125 -0.28125,1.140625 C 2.796875,-3.65625 2.453125,-3.625 2.203125,-3.625 2.125,-3.609375 1.890625,-3.59375 1.8125,-3.59375 c -0.078125,0.015625 -0.140625,0.03125 -0.140625,0.125 0,0.109375 0.0625,0.109375 0.234375,0.109375 h 0.4375 c 0.8125,0 1.1875,0.671875 1.1875,1.65625 0,1.359375 -0.6875,1.640625 -1.125,1.640625 -0.4375,0 -1.1875,-0.171875 -1.53125,-0.75 0.34375,0.046875 0.65625,-0.171875 0.65625,-0.546875 0,-0.359375 -0.265625,-0.5625 -0.546875,-0.5625 -0.25,0 -0.5625,0.140625 -0.5625,0.578125 0,0.90625 0.921875,1.5625 2.015625,1.5625 1.21875,0 2.125,-0.90625 2.125,-1.921875 0,-0.8125 -0.640625,-1.59375 -1.671875,-1.8125 z m 0,0"
               id="id-e719048e-64bf-4e23-bbdc-00495377a31e" />
          </g>
        </g>
      </g>
    </g>
  </g>
</svg>
